<mxfile host="drawio-plugin" modified="2022-06-07T14:27:12.758Z" agent="5.0 (Macintosh; Intel Mac OS X 12_4_0) AppleWebKit/537.36 (KHTML, like Gecko) Chrome/89.0.4389.114 Safari/537.36" etag="uuS99u8rD-k69ZeAjuCl" version="15.5.4" type="embed"><diagram id="C5RBs43oDa-KdzZeNtuy" name="Page-1"><mxGraphModel dx="317" dy="1724" grid="1" gridSize="10" guides="1" tooltips="1" connect="1" arrows="1" fold="1" page="1" pageScale="1" pageWidth="827" pageHeight="1169" math="0" shadow="0"><root><mxCell id="WIyWlLk6GJQsqaUBKTNV-0"/><mxCell id="WIyWlLk6GJQsqaUBKTNV-1" parent="WIyWlLk6GJQsqaUBKTNV-0"/><mxCell id="yapbZNu1Kkb-PvQqDSp6-19" style="edgeStyle=orthogonalEdgeStyle;rounded=0;orthogonalLoop=1;jettySize=auto;html=1;endArrow=block;endFill=0;endSize=6;labelBackgroundColor=none;" parent="WIyWlLk6GJQsqaUBKTNV-1" source="WIyWlLk6GJQsqaUBKTNV-3" target="yapbZNu1Kkb-PvQqDSp6-18" edge="1"><mxGeometry relative="1" as="geometry"/></mxCell><mxCell id="WIyWlLk6GJQsqaUBKTNV-3" value="Sampling Request Processing" style="rounded=1;whiteSpace=wrap;html=1;fontSize=12;glass=0;strokeWidth=1;shadow=0;fillColor=#f5f5f5;fontColor=#333333;strokeColor=#666666;labelBackgroundColor=none;" parent="WIyWlLk6GJQsqaUBKTNV-1" vertex="1"><mxGeometry x="160" y="-10" width="120" height="40" as="geometry"/></mxCell><mxCell id="WIyWlLk6GJQsqaUBKTNV-4" value="Yes" style="rounded=0;html=1;jettySize=auto;orthogonalLoop=1;fontSize=11;endArrow=block;endFill=0;endSize=6;strokeWidth=1;shadow=0;labelBackgroundColor=none;edgeStyle=orthogonalEdgeStyle;" parent="WIyWlLk6GJQsqaUBKTNV-1" source="WIyWlLk6GJQsqaUBKTNV-6" target="WIyWlLk6GJQsqaUBKTNV-10" edge="1"><mxGeometry y="20" relative="1" as="geometry"><mxPoint as="offset"/></mxGeometry></mxCell><mxCell id="yapbZNu1Kkb-PvQqDSp6-0" value="NO" style="edgeStyle=orthogonalEdgeStyle;rounded=0;orthogonalLoop=1;jettySize=auto;html=1;align=center;verticalAlign=bottom;endArrow=block;endFill=0;labelBackgroundColor=none;" parent="WIyWlLk6GJQsqaUBKTNV-1" source="WIyWlLk6GJQsqaUBKTNV-6" target="WIyWlLk6GJQsqaUBKTNV-12" edge="1"><mxGeometry relative="1" as="geometry"/></mxCell><mxCell id="WIyWlLk6GJQsqaUBKTNV-6" value="Is there a policy file" style="rhombus;whiteSpace=wrap;html=1;shadow=0;fontFamily=Helvetica;fontSize=12;align=center;strokeWidth=1;spacing=6;spacingTop=-4;labelBackgroundColor=none;" parent="WIyWlLk6GJQsqaUBKTNV-1" vertex="1"><mxGeometry x="130" y="170" width="180" height="80" as="geometry"/></mxCell><mxCell id="WIyWlLk6GJQsqaUBKTNV-8" value="Yes" style="rounded=0;html=1;jettySize=auto;orthogonalLoop=1;fontSize=11;endArrow=block;endFill=0;endSize=6;strokeWidth=1;shadow=0;labelBackgroundColor=none;edgeStyle=orthogonalEdgeStyle;" parent="WIyWlLk6GJQsqaUBKTNV-1" source="WIyWlLk6GJQsqaUBKTNV-10" target="yapbZNu1Kkb-PvQqDSp6-3" edge="1"><mxGeometry x="-0.8" y="20" relative="1" as="geometry"><mxPoint as="offset"/><mxPoint x="250" y="440" as="targetPoint"/></mxGeometry></mxCell><mxCell id="yapbZNu1Kkb-PvQqDSp6-2" value="NO" style="edgeStyle=orthogonalEdgeStyle;rounded=0;orthogonalLoop=1;jettySize=auto;html=1;endArrow=block;endFill=0;verticalAlign=bottom;labelBackgroundColor=none;" parent="WIyWlLk6GJQsqaUBKTNV-1" source="WIyWlLk6GJQsqaUBKTNV-10" target="yapbZNu1Kkb-PvQqDSp6-1" edge="1"><mxGeometry relative="1" as="geometry"/></mxCell><mxCell id="WIyWlLk6GJQsqaUBKTNV-10" value="Is the policy file valid?" style="rhombus;whiteSpace=wrap;html=1;shadow=0;fontFamily=Helvetica;fontSize=12;align=center;strokeWidth=1;spacing=6;spacingTop=-4;labelBackgroundColor=none;" parent="WIyWlLk6GJQsqaUBKTNV-1" vertex="1"><mxGeometry x="127.5" y="290" width="185" height="80" as="geometry"/></mxCell><mxCell id="WIyWlLk6GJQsqaUBKTNV-12" value="Sampling Rejected" style="rounded=1;whiteSpace=wrap;html=1;fontSize=12;glass=0;strokeWidth=1;shadow=0;fillColor=#f8cecc;strokeColor=#b85450;labelBackgroundColor=none;" parent="WIyWlLk6GJQsqaUBKTNV-1" vertex="1"><mxGeometry x="420" y="190" width="120" height="40" as="geometry"/></mxCell><mxCell id="yapbZNu1Kkb-PvQqDSp6-6" style="edgeStyle=orthogonalEdgeStyle;rounded=0;orthogonalLoop=1;jettySize=auto;html=1;entryX=0.5;entryY=0;entryDx=0;entryDy=0;endArrow=block;endFill=0;endSize=6;labelBackgroundColor=none;" parent="WIyWlLk6GJQsqaUBKTNV-1" source="yapbZNu1Kkb-PvQqDSp6-1" target="yapbZNu1Kkb-PvQqDSp6-3" edge="1"><mxGeometry relative="1" as="geometry"><Array as="points"><mxPoint x="480" y="400"/><mxPoint x="220" y="400"/></Array></mxGeometry></mxCell><mxCell id="yapbZNu1Kkb-PvQqDSp6-1" value="Apply Default Policy" style="rounded=1;whiteSpace=wrap;html=1;fillColor=#fff2cc;strokeColor=#d6b656;labelBackgroundColor=none;" parent="WIyWlLk6GJQsqaUBKTNV-1" vertex="1"><mxGeometry x="420" y="310" width="120" height="40" as="geometry"/></mxCell><mxCell id="yapbZNu1Kkb-PvQqDSp6-5" value="Yes" style="edgeStyle=orthogonalEdgeStyle;rounded=0;orthogonalLoop=1;jettySize=auto;html=1;endArrow=block;endFill=0;align=center;labelPosition=right;verticalLabelPosition=middle;verticalAlign=middle;entryX=0.5;entryY=0;entryDx=0;entryDy=0;labelBackgroundColor=none;" parent="WIyWlLk6GJQsqaUBKTNV-1" source="yapbZNu1Kkb-PvQqDSp6-3" target="yapbZNu1Kkb-PvQqDSp6-10" edge="1"><mxGeometry x="-0.6923" y="20" relative="1" as="geometry"><mxPoint x="220" y="588" as="targetPoint"/><mxPoint as="offset"/></mxGeometry></mxCell><mxCell id="yapbZNu1Kkb-PvQqDSp6-3" value="Is there a request file &lt;br&gt;and is it valid?" style="rhombus;whiteSpace=wrap;html=1;labelBackgroundColor=none;" parent="WIyWlLk6GJQsqaUBKTNV-1" vertex="1"><mxGeometry x="120" y="438" width="200" height="80" as="geometry"/></mxCell><mxCell id="yapbZNu1Kkb-PvQqDSp6-8" value="NO" style="edgeStyle=orthogonalEdgeStyle;rounded=0;orthogonalLoop=1;jettySize=auto;html=1;entryX=0;entryY=0.5;entryDx=0;entryDy=0;endArrow=block;endFill=0;verticalAlign=bottom;exitX=1;exitY=0.5;exitDx=0;exitDy=0;labelBackgroundColor=none;" parent="WIyWlLk6GJQsqaUBKTNV-1" source="yapbZNu1Kkb-PvQqDSp6-3" target="yapbZNu1Kkb-PvQqDSp6-7" edge="1"><mxGeometry relative="1" as="geometry"/></mxCell><mxCell id="yapbZNu1Kkb-PvQqDSp6-9" style="edgeStyle=orthogonalEdgeStyle;rounded=0;orthogonalLoop=1;jettySize=auto;html=1;entryX=0.5;entryY=0;entryDx=0;entryDy=0;endArrow=block;endFill=0;labelBackgroundColor=none;" parent="WIyWlLk6GJQsqaUBKTNV-1" source="yapbZNu1Kkb-PvQqDSp6-7" target="yapbZNu1Kkb-PvQqDSp6-10" edge="1"><mxGeometry relative="1" as="geometry"><mxPoint x="220" y="588" as="targetPoint"/><Array as="points"><mxPoint x="480" y="548"/><mxPoint x="220" y="548"/></Array></mxGeometry></mxCell><mxCell id="yapbZNu1Kkb-PvQqDSp6-7" value="Apply Default Request from Policy" style="rounded=1;whiteSpace=wrap;html=1;fillColor=#fff2cc;strokeColor=#d6b656;labelBackgroundColor=none;" parent="WIyWlLk6GJQsqaUBKTNV-1" vertex="1"><mxGeometry x="420" y="458" width="120" height="40" as="geometry"/></mxCell><mxCell id="yapbZNu1Kkb-PvQqDSp6-12" style="edgeStyle=orthogonalEdgeStyle;rounded=0;orthogonalLoop=1;jettySize=auto;html=1;entryX=0.5;entryY=0;entryDx=0;entryDy=0;endArrow=block;endFill=0;endSize=6;labelBackgroundColor=none;" parent="WIyWlLk6GJQsqaUBKTNV-1" source="yapbZNu1Kkb-PvQqDSp6-10" target="yapbZNu1Kkb-PvQqDSp6-11" edge="1"><mxGeometry relative="1" as="geometry"/></mxCell><mxCell id="yapbZNu1Kkb-PvQqDSp6-10" value="Make request compliant with policy" style="rounded=1;whiteSpace=wrap;html=1;labelBackgroundColor=none;" parent="WIyWlLk6GJQsqaUBKTNV-1" vertex="1"><mxGeometry x="112.5" y="588" width="215" height="40" as="geometry"/></mxCell><mxCell id="yapbZNu1Kkb-PvQqDSp6-14" value="NO" style="edgeStyle=orthogonalEdgeStyle;rounded=0;orthogonalLoop=1;jettySize=auto;html=1;endArrow=block;endFill=0;endSize=6;verticalAlign=bottom;labelBackgroundColor=none;" parent="WIyWlLk6GJQsqaUBKTNV-1" source="yapbZNu1Kkb-PvQqDSp6-11" target="yapbZNu1Kkb-PvQqDSp6-13" edge="1"><mxGeometry relative="1" as="geometry"/></mxCell><mxCell id="yapbZNu1Kkb-PvQqDSp6-17" value="Yes" style="edgeStyle=orthogonalEdgeStyle;rounded=0;orthogonalLoop=1;jettySize=auto;html=1;endArrow=block;endFill=0;endSize=6;labelBackgroundColor=none;" parent="WIyWlLk6GJQsqaUBKTNV-1" source="yapbZNu1Kkb-PvQqDSp6-11" target="yapbZNu1Kkb-PvQqDSp6-16" edge="1"><mxGeometry x="-0.2" y="20" relative="1" as="geometry"><mxPoint as="offset"/></mxGeometry></mxCell><mxCell id="yapbZNu1Kkb-PvQqDSp6-11" value="Can table be sampled?&lt;br&gt;(IAM permissions)" style="rhombus;whiteSpace=wrap;html=1;labelBackgroundColor=none;" parent="WIyWlLk6GJQsqaUBKTNV-1" vertex="1"><mxGeometry x="115" y="680" width="210" height="80" as="geometry"/></mxCell><mxCell id="yapbZNu1Kkb-PvQqDSp6-13" value="Sampling Rejected" style="rounded=1;whiteSpace=wrap;html=1;fontSize=12;glass=0;strokeWidth=1;shadow=0;fillColor=#f8cecc;strokeColor=#b85450;labelBackgroundColor=none;" parent="WIyWlLk6GJQsqaUBKTNV-1" vertex="1"><mxGeometry x="420" y="700" width="120" height="40" as="geometry"/></mxCell><mxCell id="yapbZNu1Kkb-PvQqDSp6-23" style="edgeStyle=orthogonalEdgeStyle;rounded=0;orthogonalLoop=1;jettySize=auto;html=1;entryX=0.5;entryY=0;entryDx=0;entryDy=0;endArrow=block;endFill=0;endSize=6;labelBackgroundColor=none;" parent="WIyWlLk6GJQsqaUBKTNV-1" source="yapbZNu1Kkb-PvQqDSp6-16" target="yapbZNu1Kkb-PvQqDSp6-22" edge="1"><mxGeometry relative="1" as="geometry"/></mxCell><mxCell id="yapbZNu1Kkb-PvQqDSp6-16" value="Drop equivalent table in Data Science Environment and recreate with newest schema (if existent)" style="rounded=1;whiteSpace=wrap;html=1;fontSize=12;glass=0;strokeWidth=1;shadow=0;labelBackgroundColor=none;" parent="WIyWlLk6GJQsqaUBKTNV-1" vertex="1"><mxGeometry x="65" y="810" width="310" height="40" as="geometry"/></mxCell><mxCell id="yapbZNu1Kkb-PvQqDSp6-20" style="edgeStyle=orthogonalEdgeStyle;rounded=0;orthogonalLoop=1;jettySize=auto;html=1;endArrow=block;endFill=0;endSize=6;labelBackgroundColor=none;" parent="WIyWlLk6GJQsqaUBKTNV-1" source="yapbZNu1Kkb-PvQqDSp6-18" target="WIyWlLk6GJQsqaUBKTNV-6" edge="1"><mxGeometry relative="1" as="geometry"/></mxCell><mxCell id="yapbZNu1Kkb-PvQqDSp6-18" value="Drop ALL sampled tables in &lt;br&gt;Data Science Environment" style="rounded=1;whiteSpace=wrap;html=1;fontSize=12;glass=0;strokeWidth=1;shadow=0;labelBackgroundColor=none;" parent="WIyWlLk6GJQsqaUBKTNV-1" vertex="1"><mxGeometry x="122.5" y="80" width="195" height="40" as="geometry"/></mxCell><mxCell id="yapbZNu1Kkb-PvQqDSp6-22" value="Sample PROD table into&lt;br&gt;Data Science Environment table" style="rounded=1;whiteSpace=wrap;html=1;fontSize=12;glass=0;strokeWidth=1;shadow=0;fillColor=#d5e8d4;strokeColor=#82b366;labelBackgroundColor=none;" parent="WIyWlLk6GJQsqaUBKTNV-1" vertex="1"><mxGeometry x="105" y="900" width="230" height="40" as="geometry"/></mxCell><mxCell id="yapbZNu1Kkb-PvQqDSp6-24" value="&lt;h1&gt;Why drop here?&lt;/h1&gt;&lt;p&gt;This is to cover the case that there wasn't a previous sample but someone created an equivalent table with some data, maybe to test prior to getting either access or a policy.&lt;/p&gt;" style="text;html=1;strokeColor=none;fillColor=none;spacing=5;spacingTop=-20;whiteSpace=wrap;overflow=hidden;rounded=0;labelBackgroundColor=none;" parent="WIyWlLk6GJQsqaUBKTNV-1" vertex="1"><mxGeometry x="390" y="770" width="250" height="140" as="geometry"/></mxCell><mxCell id="yapbZNu1Kkb-PvQqDSp6-25" value="&lt;h1&gt;All Tables?&lt;/h1&gt;&lt;p&gt;&lt;b&gt;NO&lt;/b&gt;, only the tables that are a product of a previous sampling procedure. The procedure tags the tables to guide this step. If you have table that is NOT a product of the sampling, it will be kept.&lt;/p&gt;" style="text;html=1;strokeColor=none;fillColor=none;spacing=5;spacingTop=-20;whiteSpace=wrap;overflow=hidden;rounded=0;labelBackgroundColor=none;" parent="WIyWlLk6GJQsqaUBKTNV-1" vertex="1"><mxGeometry x="390" y="10" width="250" height="150" as="geometry"/></mxCell></root></mxGraphModel></diagram></mxfile>